<svg width="14" height="17" viewBox="0 0 14 17" fill="none" xmlns="http://www.w3.org/2000/svg">
<path fill-rule="evenodd" clip-rule="evenodd" d="M12.0808 0C11.5285 0 11.0808 0.447716 11.0808 1V16.0001C11.0808 16.5524 11.5285 17.0001 12.0808 17.0001H12.6447C13.1969 17.0001 13.6447 16.5524 13.6447 16.0001V1C13.6447 0.447715 13.1969 0 12.6447 0H12.0808ZM5.79093 4.11959C5.79093 3.5673 6.23865 3.11959 6.79093 3.11959H7.3548C7.90708 3.11959 8.3548 3.5673 8.3548 4.11959V16.0005C8.3548 16.5528 7.90708 17.0005 7.3548 17.0005H6.79093C6.23865 17.0005 5.79093 16.5528 5.79093 16.0005V4.11959ZM0 9.03064C0 8.47835 0.447715 8.03064 1 8.03064H1.56387C2.11615 8.03064 2.56386 8.47835 2.56386 9.03064V15.999C2.56386 16.5513 2.11615 16.999 1.56387 16.999H1C0.447715 16.999 0 16.5513 0 15.999V9.03064Z" fill="#7E7E7E" fill-opacity="0.33"/>
</svg>
