<svg width="73" height="13" viewBox="0 0 73 13" fill="none" xmlns="http://www.w3.org/2000/svg">
<path d="M5.54095 1.46353C5.69063 1.00287 6.34233 1.00287 6.49201 1.46352L7.255 3.81179C7.32194 4.0178 7.51392 4.15728 7.73053 4.15728L10.1996 4.15728C10.684 4.15728 10.8854 4.77709 10.4935 5.06179L8.49598 6.5131C8.32074 6.64042 8.24741 6.86611 8.31435 7.07212L9.07735 9.42039C9.22702 9.88104 8.69978 10.2641 8.30793 9.9794L6.31037 8.52809C6.13513 8.40077 5.89783 8.40077 5.72259 8.52809L3.72503 9.9794C3.33317 10.2641 2.80593 9.88104 2.95561 9.42039L3.71861 7.07212C3.78554 6.86611 3.71222 6.64042 3.53697 6.5131L1.53942 5.06179C1.14756 4.77709 1.34895 4.15728 1.83331 4.15728L4.30242 4.15728C4.51904 4.15728 4.71101 4.0178 4.77795 3.81179L5.54095 1.46353Z" fill="#FFCA0E"/>
<path d="M20.7826 1.46353C20.9323 1.00287 21.584 1.00287 21.7337 1.46352L22.4967 3.81179C22.5636 4.0178 22.7556 4.15728 22.9722 4.15728L25.4413 4.15728C25.9257 4.15728 26.1271 4.77709 25.7352 5.06179L23.7377 6.5131C23.5624 6.64042 23.4891 6.86611 23.556 7.07212L24.319 9.42039C24.4687 9.88104 23.9415 10.2641 23.5496 9.9794L21.5521 8.52809C21.3768 8.40077 21.1395 8.40077 20.9643 8.52809L18.9667 9.9794C18.5749 10.2641 18.0476 9.88104 18.1973 9.42039L18.9603 7.07212C19.0272 6.86611 18.9539 6.64042 18.7787 6.5131L16.7811 5.06179C16.3893 4.77709 16.5906 4.15728 17.075 4.15728L19.5441 4.15728C19.7607 4.15728 19.9527 4.0178 20.0197 3.81179L20.7826 1.46353Z" fill="#FFCA0E"/>
<path d="M36.0234 1.46353C36.173 1.00287 36.8248 1.00287 36.9744 1.46352L37.7374 3.81179C37.8044 4.0178 37.9963 4.15728 38.213 4.15728L40.6821 4.15728C41.1664 4.15728 41.3678 4.77709 40.976 5.06179L38.9784 6.5131C38.8032 6.64042 38.7298 6.86611 38.7968 7.07212L39.5598 9.42039C39.7094 9.88104 39.1822 10.2641 38.7903 9.9794L36.7928 8.52809C36.6175 8.40077 36.3803 8.40077 36.205 8.52809L34.2075 9.9794C33.8156 10.2641 33.2884 9.88104 33.438 9.42039L34.201 7.07212C34.268 6.86611 34.1946 6.64042 34.0194 6.5131L32.0218 5.06179C31.63 4.77709 31.8314 4.15728 32.3157 4.15728L34.7848 4.15728C35.0015 4.15728 35.1934 4.0178 35.2604 3.81179L36.0234 1.46353Z" fill="#FFCA0E"/>
<path d="M51.2663 1.46353C51.416 1.00287 52.0677 1.00287 52.2173 1.46352L52.9803 3.81179C53.0473 4.0178 53.2393 4.15728 53.4559 4.15728L55.925 4.15728C56.4094 4.15728 56.6107 4.77709 56.2189 5.06179L54.2213 6.5131C54.0461 6.64042 53.9728 6.86611 54.0397 7.07212L54.8027 9.42039C54.9524 9.88104 54.4251 10.2641 54.0333 9.9794L52.0357 8.52809C51.8605 8.40077 51.6232 8.40077 51.4479 8.52809L49.4504 9.9794C49.0585 10.2641 48.5313 9.88104 48.681 9.42039L49.4439 7.07212C49.5109 6.86611 49.4376 6.64042 49.2623 6.5131L47.2648 5.06179C46.8729 4.77709 47.0743 4.15728 47.5587 4.15728L50.0278 4.15728C50.2444 4.15728 50.4364 4.0178 50.5033 3.81179L51.2663 1.46353Z" fill="#FFCA0E"/>
<path d="M66.5082 1.46353C66.6579 1.00287 67.3096 1.00287 67.4593 1.46352L68.2223 3.81179C68.2892 4.0178 68.4812 4.15728 68.6978 4.15728L71.1669 4.15728C71.6513 4.15728 71.8527 4.77709 71.4608 5.06179L69.4633 6.5131C69.288 6.64042 69.2147 6.86611 69.2816 7.07212L70.0446 9.42039C70.1943 9.88104 69.6671 10.2641 69.2752 9.9794L67.2777 8.52809C67.1024 8.40077 66.8651 8.40077 66.6899 8.52809L64.6923 9.9794C64.3005 10.2641 63.7732 9.88104 63.9229 9.42039L64.6859 7.07212C64.7528 6.86611 64.6795 6.64042 64.5043 6.5131L62.5067 5.06179C62.1148 4.77709 62.3162 4.15728 62.8006 4.15728L65.2697 4.15728C65.4863 4.15728 65.6783 4.0178 65.7452 3.81179L66.5082 1.46353Z" fill="#FFCA0E"/>
</svg>
