<svg width="28" height="29" viewBox="0 0 28 29" fill="none" xmlns="http://www.w3.org/2000/svg">
<path d="M14 28.4004C21.732 28.4004 28 22.1324 28 14.4004C28 6.6684 21.732 0.400391 14 0.400391C6.26801 0.400391 0 6.6684 0 14.4004C0 22.1324 6.26801 28.4004 14 28.4004Z" fill="#F4F4F4"/>
<path d="M7.61502 12.9713L19.3288 8.45481C19.8725 8.2584 20.3473 8.58744 20.1712 9.40953L20.1722 9.40852L18.1777 18.8049C18.0299 19.471 17.634 19.633 17.0802 19.3192L14.0429 17.0807L12.5779 18.492C12.416 18.654 12.2793 18.7907 11.9654 18.7907L12.1811 15.6997L17.8102 10.6143C18.0552 10.3987 17.7555 10.2772 17.4325 10.4918L10.4761 14.8716L7.47733 13.9361C6.82634 13.7296 6.81217 13.2851 7.61502 12.9713Z" fill="#039BE5"/>
</svg>
