<svg width="49" height="49" viewBox="0 0 49 49" fill="none" xmlns="http://www.w3.org/2000/svg">
<circle cx="24.5" cy="24.5" r="24.5" fill="url(#paint0_linear_3801_2)" fill-opacity="0.68"/>
<path d="M13 24.553V26.3994C13.0692 28.2181 15.6763 28.2167 15.7449 26.3994V24.553C15.6757 22.7343 13.0686 22.7357 13 24.553ZM14.8463 24.553V26.3994C14.8224 27.0273 13.9222 27.0269 13.8985 26.3994V24.553C13.8985 24.2917 14.1111 24.0791 14.3724 24.0791C14.6337 24.0791 14.8463 24.2917 14.8463 24.553ZM33.938 23.1806C33.6898 23.1806 33.4887 23.3817 33.4887 23.6299V27.3226C33.4887 27.5707 33.6898 27.7718 33.938 27.7718H35.5535C36.149 27.7497 36.1485 26.8952 35.5535 26.8733H34.3873V23.6299C34.3873 23.3817 34.1861 23.1806 33.938 23.1806ZM28.4112 23.6299V25.4194L27.416 23.4289C27.3707 23.3384 27.2962 23.2658 27.2045 23.2229C27.1129 23.18 27.0094 23.1693 26.9109 23.1925C26.8124 23.2158 26.7246 23.2716 26.6618 23.351C26.599 23.4304 26.5648 23.5286 26.5648 23.6299V27.3226C26.5869 27.918 27.4415 27.9176 27.4634 27.3226V25.533L28.4586 27.5235C28.5514 27.7109 28.765 27.8078 28.9637 27.7598C29.0622 27.7366 29.1499 27.6807 29.2128 27.6014C29.2756 27.522 29.3097 27.4238 29.3097 27.3226V23.6299C29.2876 23.0344 28.4331 23.0348 28.4112 23.6299ZM19.2068 24.553C19.2068 23.7962 18.5911 23.1805 17.8344 23.1805H16.9112C16.6631 23.1805 16.4619 23.3817 16.4619 23.6298V27.3226C16.484 27.918 17.3386 27.9176 17.3605 27.3226V25.9254H17.5567L18.3557 27.5235C18.4671 27.7477 18.7413 27.8344 18.9585 27.7244C19.1804 27.6134 19.2704 27.3435 19.1594 27.1216L18.4804 25.7636C18.9123 25.5322 19.2068 25.0763 19.2068 24.553ZM17.3605 24.0791H17.8344C18.4598 24.1026 18.4631 24.998 17.8386 25.0268C17.8345 25.0268 17.8304 25.0268 17.8263 25.0269H17.3605V24.0791ZM32.3224 27.7718C32.5705 27.7718 32.7717 27.5707 32.7717 27.3226V24.553C32.7024 22.7343 30.0953 22.7357 30.0267 24.553V27.3226C30.0488 27.918 30.9034 27.9176 30.9253 27.3226V26.387H31.8731V27.3226C31.8731 27.5707 32.0743 27.7718 32.3224 27.7718ZM30.9253 25.4885V24.553C30.9492 23.925 31.8494 23.9255 31.8731 24.553V25.4885H30.9253ZM19.8718 23.6299V27.3226C19.8939 27.918 20.7485 27.9176 20.7704 27.3226V23.6299C20.7483 23.0344 19.8937 23.0348 19.8718 23.6299ZM22.8598 24.0791C23.0382 24.0791 23.2001 24.179 23.2824 24.3398C23.3954 24.5607 23.6661 24.6481 23.887 24.5351C24.1079 24.4221 24.1953 24.1513 24.0823 23.9305C23.4225 22.6548 21.4982 23.1191 21.4874 24.553V26.3994C21.5566 28.2181 24.1637 28.2167 24.2323 26.3994V25.7178C24.2323 25.4696 24.0311 25.2685 23.783 25.2685H23.3215C22.726 25.2906 22.7265 26.1452 23.3215 26.167H23.3337V26.3994C23.3098 27.0274 22.4096 27.0269 22.3859 26.3994V24.553C22.3859 24.2917 22.5985 24.0791 22.8598 24.0791ZM24.9493 23.6299V27.3226C24.9714 27.918 25.8259 27.9176 25.8478 27.3226V23.6299C25.8257 23.0344 24.9712 23.0348 24.9493 23.6299ZM13.4492 22.1066H35.5536C36.149 22.0845 36.1486 21.23 35.5536 21.2081H35.1841C31.2817 11.5948 17.7176 11.5998 13.8187 21.2081H13.4492C12.8538 21.2302 12.8542 22.0848 13.4492 22.1066ZM17.5792 21.2081C20.6203 16.0916 28.3836 16.093 31.4236 21.2081H17.5792ZM24.5014 14.8733C28.7023 14.8733 32.5295 17.3952 34.2096 21.2081H32.4596C31.6977 19.7874 30.5693 18.5965 29.1917 17.7592C26.3758 16.015 22.627 16.015 19.8112 17.7592C18.4335 18.5965 17.3051 19.7873 16.5433 21.2081H14.7932C16.4733 17.3952 20.3005 14.8733 24.5014 14.8733ZM35.5536 28.8457H13.4492C12.8538 28.8678 12.8542 29.7224 13.4492 29.7442H13.8187C17.7211 39.3576 31.2852 39.3525 35.1841 29.7442H35.5536C36.149 29.7222 36.1486 28.8676 35.5536 28.8457ZM31.4236 29.7442C28.3825 34.8607 20.6192 34.8594 17.5792 29.7442H31.4236ZM24.5014 36.079C20.3005 36.079 16.4733 33.5571 14.7932 29.7442H16.5432C19.9367 36.0724 29.0681 36.0697 32.4595 29.7442H34.2095C32.5295 33.5572 28.7023 36.079 24.5014 36.079Z" fill="white"/>
<defs>
<linearGradient id="paint0_linear_3801_2" x1="-1.1878e-07" y1="31.2449" x2="50.4076" y2="28.6621" gradientUnits="userSpaceOnUse">
<stop stop-color="#5F6308"/>
<stop offset="1" stop-color="#302F02"/>
</linearGradient>
</defs>
</svg>
