<svg width="29" height="28" viewBox="0 0 29 28" fill="none" xmlns="http://www.w3.org/2000/svg">
<path d="M14.8359 28C22.5679 28 28.8359 21.732 28.8359 14C28.8359 6.26801 22.5679 0 14.8359 0C7.10395 0 0.835938 6.26801 0.835938 14C0.835938 21.732 7.10395 28 14.8359 28Z" fill="#F4F4F4"/>
<path d="M20.1563 8.50683C18.964 7.30263 17.3806 6.56414 15.6918 6.42455C14.0029 6.28497 12.3198 6.75348 10.946 7.74558C9.57214 8.73769 8.59806 10.1881 8.19943 11.8351C7.8008 13.4822 8.00385 15.2174 8.77197 16.728L8.01797 20.3886C8.01014 20.425 8.00992 20.4627 8.01732 20.4992C8.02471 20.5357 8.03956 20.5703 8.06094 20.6009C8.09226 20.6472 8.13697 20.6828 8.18909 20.7031C8.24121 20.7233 8.29827 20.7272 8.35265 20.7142L11.9404 19.8638C13.4466 20.6125 15.1697 20.8025 16.8029 20.4C18.4361 19.9975 19.8735 19.0286 20.8594 17.6658C21.8454 16.303 22.3158 14.6345 22.187 12.9574C22.0583 11.2803 21.3387 9.7032 20.1563 8.50683ZM19.0376 17.4351C18.2127 18.2577 17.1504 18.8007 16.0005 18.9876C14.8506 19.1746 13.671 18.9959 12.6279 18.4769L12.1279 18.2295L9.92837 18.7504L9.93489 18.723L10.3907 16.5092L10.1459 16.026C9.61292 14.9794 9.42492 13.7909 9.60878 12.6309C9.79265 11.4708 10.339 10.3987 11.1694 9.56816C12.2129 8.52498 13.628 7.93896 15.1035 7.93896C16.579 7.93896 17.9941 8.52498 19.0376 9.56816C19.0465 9.57835 19.0561 9.58793 19.0663 9.59681C20.0969 10.6427 20.6722 12.0536 20.6668 13.5219C20.6614 14.9901 20.0758 16.3968 19.0376 17.4351Z" fill="#29A71A"/>
<path d="M18.8427 15.8106C18.5731 16.2351 18.1473 16.7547 17.612 16.8836C16.6744 17.1102 15.2354 16.8914 13.4448 15.222L13.4227 15.2024C11.8483 13.7426 11.4394 12.5276 11.5383 11.5639C11.593 11.017 12.0488 10.5221 12.433 10.1992C12.4937 10.1473 12.5657 10.1104 12.6433 10.0914C12.7208 10.0724 12.8018 10.0718 12.8796 10.0896C12.9574 10.1074 13.03 10.1433 13.0915 10.1942C13.153 10.2451 13.2018 10.3097 13.2339 10.3828L13.8134 11.685C13.851 11.7695 13.865 11.8626 13.8537 11.9543C13.8425 12.0461 13.8065 12.1331 13.7495 12.2059L13.4565 12.5862C13.3937 12.6647 13.3557 12.7602 13.3476 12.8605C13.3395 12.9608 13.3616 13.0612 13.411 13.1488C13.575 13.4366 13.9683 13.8598 14.4046 14.2518C14.8942 14.6945 15.4373 15.0995 15.7811 15.2376C15.8731 15.2752 15.9742 15.2843 16.0715 15.2639C16.1687 15.2435 16.2576 15.1944 16.3267 15.123L16.6666 14.7805C16.7322 14.7158 16.8137 14.6697 16.903 14.6468C16.9922 14.6239 17.0859 14.6251 17.1745 14.6503L18.551 15.0409C18.6269 15.0642 18.6965 15.1046 18.7544 15.1589C18.8124 15.2132 18.8571 15.2801 18.8853 15.3543C18.9134 15.4286 18.9242 15.5083 18.9168 15.5874C18.9095 15.6665 18.8841 15.7428 18.8427 15.8106Z" fill="#29A71A"/>
</svg>
